<?xml version="1.0" standalone="no"?>
<!DOCTYPE svg PUBLIC "-//W3C//DTD SVG 20010904//EN"
 "http://www.w3.org/TR/2001/REC-SVG-20010904/DTD/svg10.dtd">
<svg version="1.0" xmlns="http://www.w3.org/2000/svg"
 width="700.000000pt" height="700.000000pt" viewBox="0 0 700.000000 700.000000"
 preserveAspectRatio="xMidYMid meet">
<metadata>
Created by potrace 1.14, written by Peter Selinger 2001-2017
</metadata>
<g transform="translate(0.000000,700.000000) scale(0.100000,-0.100000)"
fill="#000000" stroke="none">
<path d="M3248 6945 c-1 -2 -32 -6 -68 -9 -1101 -107 -2087 -734 -2651 -1686
-71 -119 -142 -256 -189 -365 -12 -27 -28 -63 -35 -80 -55 -124 -154 -445
-185 -600 -5 -27 -11 -59 -13 -70 -3 -11 -8 -42 -12 -70 -4 -27 -9 -59 -11
-70 -1 -11 -6 -42 -9 -69 -3 -26 -9 -65 -11 -85 -13 -86 -11 -570 1 -681 22
-190 25 -212 30 -219 2 -4 6 -31 10 -61 3 -29 8 -57 11 -61 3 -5 7 -21 9 -36
7 -54 57 -239 100 -368 112 -339 287 -675 500 -959 132 -177 174 -226 335
-386 154 -155 223 -216 366 -323 188 -141 335 -231 559 -341 229 -113 399
-177 640 -241 123 -32 146 -38 213 -50 15 -3 38 -8 50 -11 13 -2 43 -7 65 -10
23 -3 51 -7 63 -9 11 -2 45 -7 75 -10 30 -4 68 -8 84 -11 17 -2 95 -7 175 -10
l145 -6 0 1618 c0 1535 1 1621 18 1666 21 54 80 117 135 144 36 18 101 19
1671 22 l1634 2 -7 158 c-3 86 -8 166 -10 177 -2 11 -7 47 -10 80 -10 85 -35
244 -46 285 -5 19 -11 47 -14 61 -9 55 -67 259 -99 355 -53 155 -83 227 -167
399 -216 445 -504 811 -895 1141 -106 89 -363 274 -381 274 -4 0 -15 6 -23 14
-21 18 -120 73 -252 141 -306 156 -700 280 -1044 330 -43 6 -82 11 -155 21
-47 6 -596 15 -602 9z"/>
<path d="M4306 2719 c-15 -11 -31 -30 -37 -41 -8 -15 -11 -378 -11 -1258 0
-1023 2 -1243 13 -1266 29 -61 -3 -59 879 -58 885 1 894 1 1036 45 256 79 481
266 601 499 21 41 44 89 50 105 26 62 54 193 61 280 4 50 7 437 7 862 -1 627
-3 776 -14 797 -32 59 35 56 -1319 55 -1230 0 -1241 0 -1266 -20z"/>
</g>
</svg>
